<?xml version="1.0" encoding="UTF-8"?>
<!DOCTYPE svg PUBLIC "-//W3C//DTD SVG 1.1//EN" "http://www.w3.org/Graphics/SVG/1.1/DTD/svg11.dtd">
<!-- Creator: CorelDRAW 2019 (64-Bit) -->
<svg xmlns="http://www.w3.org/2000/svg" xml:space="preserve" width="0.499992in" height="0.499992in" version="1.1" style="shape-rendering:geometricPrecision; text-rendering:geometricPrecision; image-rendering:optimizeQuality; fill-rule:evenodd; clip-rule:evenodd"
viewBox="0 0 499.99 499.99"
 xmlns:xlink="http://www.w3.org/1999/xlink"
 xmlns:xodm="http://www.corel.com/coreldraw/odm/2003">
 <defs>
  <style type="text/css">
   <![CDATA[
    .fil0 {fill:#A9ABAE;fill-rule:nonzero}
    .fil1 {fill:#3E4095;fill-rule:nonzero}
    .fil2 {fill:#ED1F24;fill-rule:nonzero}
   ]]>
  </style>
 </defs>
 <g id="Layer_x0020_1">
  <metadata id="CorelCorpID_0Corel-Layer"/>
  <g id="_1854379313488">
   <path class="fil0" d="M291.5 433.27c-3.89,-0.02 -6.09,0 -8.28,-0.04 -43.1,-0.71 -86.19,-1.47 -129.29,-2.05 -3.87,-0.05 -5.95,-1.4 -7.85,-4.72 -35.19,-61.54 -70.48,-123.03 -105.87,-184.46 -1.81,-3.15 -2.01,-5.59 -0.28,-8.81 4.83,-9 9.39,-18.15 13.86,-27.34 1.28,-2.63 2.74,-3.8 5.8,-3.64 9.37,0.48 18.76,0.64 28.78,0.94 -0.74,1.92 -1.2,3.37 -1.85,4.73 -4.13,8.83 -8.16,17.7 -12.51,26.41 -1.61,3.22 -1.44,5.72 0.33,8.87 17.57,31.07 34.98,62.22 52.41,93.35 10.79,19.27 21.63,38.51 32.25,57.87 2,3.66 4.22,5.21 8.55,5.21 21.87,-0.01 43.74,0.36 65.61,0.59 1.72,0.02 3.44,-0.04 6.08,-0.08 -1.15,-2.44 -1.86,-4.29 -2.83,-5.98 -28.81,-50.26 -57.61,-100.52 -86.58,-150.7 -2.19,-3.8 -2.31,-6.69 -0.19,-10.49 5.06,-9.05 9.6,-18.4 14.52,-27.54 0.7,-1.31 2.38,-3.04 3.58,-3.01 11.31,0.21 22.61,0.77 34.63,1.25 -0.97,2.1 -1.62,3.65 -2.39,5.15 -4.74,9.24 -9.3,18.57 -14.33,27.64 -2.07,3.72 -1.77,6.56 0.26,10.15 31.54,55.7 62.96,111.48 94.41,167.23 3.45,6.11 6.98,12.17 11.16,19.46z"/>
   <path class="fil1" d="M62.85 188.45c1.95,-3.37 3.03,-5.28 4.15,-7.17 22.07,-37.02 44.18,-74.02 66.13,-111.11 1.97,-3.33 4.17,-4.46 8,-4.46 70.9,0.11 141.79,0.11 212.69,0 3.63,-0.01 5.85,1.04 7.78,4.14 5.41,8.67 11.07,17.18 16.82,25.63 1.65,2.42 1.93,4.27 0.26,6.85 -5.08,7.89 -9.89,15.96 -15.14,24.5 -1.3,-1.6 -2.32,-2.72 -3.19,-3.96 -5.6,-7.97 -11.28,-15.89 -16.67,-24 -2,-3 -4.24,-4.11 -7.87,-4.13 -35.69,-0.23 -71.37,-0.64 -107.06,-1.01 -22.08,-0.23 -44.17,-0.41 -66.24,-0.84 -4.18,-0.08 -6.62,1.07 -8.78,4.82 -10.88,18.97 -22.09,37.75 -33.17,56.6 -0.87,1.48 -1.67,3 -2.96,5.31 2.69,0.22 4.64,0.52 6.59,0.52 57.93,0.03 115.87,0.07 173.8,-0.08 4.39,-0.01 6.95,1.32 9.19,5.06 5.33,8.9 11.18,17.48 16.65,26.3 0.79,1.27 1.44,3.58 0.83,4.61 -5.81,9.7 -11.92,19.22 -18.33,29.41 -1.34,-1.89 -2.36,-3.23 -3.28,-4.64 -5.65,-8.7 -11.47,-17.31 -16.83,-26.19 -2.2,-3.65 -4.81,-4.8 -8.94,-4.82 -64.01,-0.37 -128.02,-0.89 -192.03,-1.36 -7.02,-0.05 -14.04,-0.01 -22.43,-0.01z"/>
   <path class="fil2" d="M311.11 434.28c-5.24,-9.5 -10.48,-19 -16.2,-29.35 7.82,-0.71 14.93,-2.25 21.91,-1.8 13.1,0.85 20.17,-5 26.61,-16.31 26.69,-46.83 54.47,-93.03 81.98,-139.38 1.89,-3.18 1.96,-5.45 0.09,-8.67 -11.14,-19.24 -22.02,-38.63 -33.01,-57.96 -0.76,-1.34 -1.65,-2.61 -2.94,-4.63 -1.33,2.18 -2.33,3.72 -3.25,5.3 -29.01,50.3 -58.04,100.58 -86.94,150.94 -1.98,3.46 -4.15,4.91 -8.2,4.98 -10.54,0.18 -21.08,0.81 -31.61,1.47 -2.94,0.19 -4.63,-0.68 -6,-3.38 -4.91,-9.65 -10.06,-19.16 -15.51,-29.45 8.36,-0.44 15.95,-0.8 23.54,-1.26 6.2,-0.37 13.47,0.98 18.3,-1.83 4.63,-2.69 6.83,-9.68 9.91,-14.9 33.2,-56.37 66.35,-112.76 99.53,-169.15 0.81,-1.37 1.66,-2.7 2.85,-4.65 0.99,1.46 1.8,2.51 2.44,3.66 22.06,39.34 44.13,78.68 66.05,118.1 0.78,1.4 0.74,4.02 -0.06,5.41 -35.77,62.28 -71.67,124.47 -107.48,186.73 -1.63,2.82 -3.45,3.98 -6.75,4.13 -8.59,0.4 -17.15,1.28 -25.71,1.97 -3.2,0 -6.4,0 -9.59,0z"/>
  </g>
 </g>
</svg>
